<svg xmlns="http://www.w3.org/2000/svg" width="900" height="620" viewBox="0 0 900 620" fill="none">
<defs><linearGradient id="bg" x1="0" y1="0" x2="900" y2="620"><stop stop-color="#F8FAFB"/><stop offset="1" stop-color="#E7EEF4"/></linearGradient><linearGradient id="gold" x1="0" y1="0" x2="1" y2="1"><stop stop-color="#F5D88C"/><stop offset="1" stop-color="#B97921"/></linearGradient><linearGradient id="water" x1="0" y1="0" x2="1" y2="1"><stop stop-color="#D5F6FF"/><stop offset="1" stop-color="#3B9CC5"/></linearGradient><filter id="s"><feDropShadow dx="0" dy="16" stdDeviation="22" flood-color="#07111C" flood-opacity=".13"/></filter></defs>
<rect width="900" height="620" rx="30" fill="url(#bg)"/><text x="68" y="82" font-family="Arial, Helvetica, sans-serif" font-size="34" font-weight="800" fill="#08131F">Гальванические ванны</text><path d="M68 106h180" stroke="url(#gold)" stroke-width="8" stroke-linecap="round"/>
<rect x="80" y="148" width="740" height="72" rx="28" fill="#0D2236" filter="url(#s)"/><rect x="128" y="118" width="642" height="26" rx="13" fill="url(#gold)"/>
<g filter="url(#s)"><rect x="90" y="260" width="150" height="210" rx="22" fill="#fff"/><rect x="275" y="260" width="150" height="210" rx="22" fill="#fff"/><rect x="460" y="260" width="150" height="210" rx="22" fill="#fff"/><rect x="645" y="260" width="150" height="210" rx="22" fill="#fff"/></g>
<g><path d="M110 316h110v100H110z" fill="url(#water)"/><path d="M295 316h110v100H295z" fill="#BFD6C6"/><path d="M480 316h110v100H480z" fill="#E4C57E"/><path d="M665 316h110v100H665z" fill="#C8D4DF"/><path d="M110 316c24-14 48-14 72 0 16 9 25 9 38 0" stroke="#fff" stroke-width="6" stroke-linecap="round"/><path d="M295 316c24-14 48-14 72 0 16 9 25 9 38 0" stroke="#fff" stroke-width="6" stroke-linecap="round"/><path d="M480 316c24-14 48-14 72 0 16 9 25 9 38 0" stroke="#fff" stroke-width="6" stroke-linecap="round"/><path d="M665 316c24-14 48-14 72 0 16 9 25 9 38 0" stroke="#fff" stroke-width="6" stroke-linecap="round"/></g>
<text x="112" y="510" font-family="Arial, Helvetica, sans-serif" font-size="18" font-weight="700" fill="#0D2236">Подготовка</text><text x="309" y="510" font-family="Arial, Helvetica, sans-serif" font-size="18" font-weight="700" fill="#0D2236">Промывка</text><text x="486" y="510" font-family="Arial, Helvetica, sans-serif" font-size="18" font-weight="700" fill="#0D2236">Покрытие</text><text x="691" y="510" font-family="Arial, Helvetica, sans-serif" font-size="18" font-weight="700" fill="#0D2236">Финиш</text>
</svg>
