<svg xmlns="http://www.w3.org/2000/svg" width="900" height="620" viewBox="0 0 900 620" fill="none">
<defs><linearGradient id="bg" x1="0" y1="0" x2="900" y2="620"><stop stop-color="#0A1420"/><stop offset="1" stop-color="#152C43"/></linearGradient><linearGradient id="gold" x1="0" y1="0" x2="1" y2="1"><stop stop-color="#F6D78B"/><stop offset="1" stop-color="#AD7425"/></linearGradient><filter id="s"><feDropShadow dx="0" dy="20" stdDeviation="26" flood-color="#000" flood-opacity=".36"/></filter></defs>
<rect width="900" height="620" rx="30" fill="url(#bg)"/><circle cx="760" cy="96" r="190" fill="#D09C48" opacity=".12"/><text x="68" y="82" font-family="Arial, Helvetica, sans-serif" font-size="34" font-weight="800" fill="#fff">Лаборатория и контроль</text><path d="M68 106h184" stroke="url(#gold)" stroke-width="8" stroke-linecap="round"/>
<g filter="url(#s)"><rect x="70" y="155" width="260" height="270" rx="28" fill="#FFFFFF"/><rect x="382" y="136" width="444" height="176" rx="28" fill="#FFFFFF"/><rect x="382" y="350" width="444" height="126" rx="28" fill="#FFFFFF"/></g>
<g><rect x="122" y="202" width="144" height="38" rx="14" fill="#12283D"/><path d="M194 244c0 58-43 102-100 102" stroke="url(#gold)" stroke-width="18" stroke-linecap="round"/><circle cx="96" cy="346" r="30" fill="#DCE7EE"/><path d="M96 315V250" stroke="#12283D" stroke-width="16" stroke-linecap="round"/></g>
<g><rect x="428" y="176" width="344" height="92" rx="16" fill="#EDF3F7"/><path d="M458 246l47-42 44 28 55-62 54 45 58-32" stroke="url(#gold)" stroke-width="8" fill="none" stroke-linecap="round" stroke-linejoin="round"/><circle cx="458" cy="246" r="8" fill="#0A1420"/><circle cx="505" cy="204" r="8" fill="#0A1420"/><circle cx="549" cy="232" r="8" fill="#0A1420"/><circle cx="604" cy="170" r="8" fill="#0A1420"/><circle cx="658" cy="215" r="8" fill="#0A1420"/><circle cx="716" cy="183" r="8" fill="#0A1420"/></g>
<text x="430" y="392" font-family="Arial" font-size="22" font-weight="800" fill="#0A1420">Контроль партии</text><text x="430" y="428" font-family="Arial" font-size="17" fill="#586879">Толщина, внешний вид, адгезия, соответствие ТЗ</text><rect x="664" y="386" width="112" height="44" rx="22" fill="url(#gold)"/><text x="690" y="414" font-family="Arial" font-size="15" font-weight="800" fill="#0A1420">QC</text>
</svg>
